<?xml version="1.0" encoding="utf-8"?>
<svg version="1.1" id="Layer_1" xmlns="http://www.w3.org/2000/svg" xmlns:xlink="http://www.w3.org/1999/xlink" x="0px" y="0px"
	 viewBox="0 0 320 320" style="enable-background:new 0 0 320 320;" xml:space="preserve">
<style type="text/css">
	.st0{fill:#FF8248;}
</style>
<g id="XMLID_17_">
	<path id="XMLID_31_" class="st0" d="M195.9,161.9c-2.4,0-4.6-0.2-6.8,0c-1.6,0.1-3.2,0.2-4.8,0.3c-2.9,0.1-5.8,0.3-8.7,0.5
		c-1.9,0.1-3.7-0.2-5.6-0.8c-5-1.7-10-3.3-15-5c-1-0.3-1.9-0.7-3-1.1c-0.3,0.3-0.5,0.7-0.7,1c-3.1,5.6-6.2,11.1-9.2,16.7
		c-0.3,0.5-0.6,1-0.9,1.5c-1.6,3.3-1.7,2.9-4.4,4.6c-6.2,3.9-12.4,7.8-18.5,11.7c-2.5,1.6-7.3,3.4-7.9,6.7c-0.6,3.3-1.4,6.6-2.1,9.8
		c-0.3,1.4-0.8,2.6-1.6,3.8c-1.7,2.5-3.3,5.1-5,7.7c-0.4,0.6-0.8,1.2-1.2,1.7c-0.6,0.2-0.8-0.1-1-0.4c-1.9-2.3-3.7-4.7-5.5-7.1
		c-0.1-0.2-0.2-0.4-0.3-0.6c0.5-1.7,1.2-3.3,2.1-4.8c1.6-2.7,2.3-5.4,2.2-8.5c-0.1-2.6,0.2-5.2,0.4-7.9c0-0.3,0-0.6,0.2-0.9
		c0.7-1.7,1.5-3.3,2.5-4.9c1.7-0.1,3.3-0.1,4.8-0.2c2-1.6,3.9-3.2,5.8-4.7c2.8-2.3,5.6-4.5,8.3-6.7c0.9-0.7,1.8-1.5,2.7-2.2
		c0.5-0.4,0.8-1,1-1.7c1.2-4.3,2.4-8.6,3.6-12.9c1.4-5,2.9-10,4.3-14.9c0.9-3,1.7-6,2.6-9c-0.5-0.7-0.8-1.3-1.3-1.8
		c-2.3-2.6-4.6-5.3-6.9-7.9c-2.3-2.7-4.5-6.2-7.2-8.5c-2.3-2-3.4-4.7-4.3-7.5c-1.9-6-4-11.9-6.1-17.8c-0.3-1-0.7-1.9-1.1-2.8
		c-4.3-2.8-14.6-8.6-16.4-9.2C85.9,82,81.1,86,76.4,90c-0.1,0.4-0.1,0.7-0.1,1c0.2,2,0.3,3.9,0.5,5.9c0.3,2.6,0.6,5.2,0.8,7.8
		c0.2,2.4,0.5,4.8,0.7,7.2c0.2,2.1,0.4,4.2,0.5,6.3c0.2,2.5,0.5,5.1,0.8,7.6c0.2,2.1,0.4,4.2,0.6,6.3c0.2,1.9,0.5,3.6-0.3,5.3
		c-1.7,3.7-3.4,7.4-5.1,11.2c-1.7,3.9-3.5,7.7-5.2,11.6c-0.5,1.1-1.1,1.8-2.2,2.3c-6.4,3.5-12.6,7.4-19.1,10.6
		c-1.8-0.3-14.8-4.9-16.3-5.7c0-0.5,0.4-0.3,0.6-0.3c2.6,0,5.1,0,7.7,0.1c2.3,0.1,4.8,0.9,6.8-0.5c3.2-2.2,6.3-4.4,9.5-6.6
		c1.5-1,3-2.1,4.5-3.1c0.6-0.4,1-0.9,1.2-1.5c1.5-3.4,3-6.7,4.4-10.1c0.7-1.6,1.4-3.1,2-4.7c0.7-1.6,1.8-3.4,1.7-5.2
		c0-1.5-0.2-2.9-0.3-4.4c0-0.2-0.1-0.4-0.1-0.7c-0.2-2.6-0.3-5.2-0.5-7.9c-0.2-2.5-0.5-4.9-0.7-7.4c0-0.2,0-0.4-0.1-0.7
		c-0.2-2.5-0.3-5.1-0.5-7.6c-0.2-2.4-0.5-4.8-0.7-7.2c0-0.3,0-0.6-0.1-0.9c-0.2-2.6-0.3-5.2-0.5-7.9c-0.1-1.4-0.3-2.8-0.4-4.1
		c0-0.3,0-0.6,0.1-1c2-2.7,4.8-4.6,7.2-6.9c2.4-2.3,4.9-4.6,7.4-6.8c2.6-2.2,4.7-4.8,7.6-6.7c2.7,1.4,5.4,2.8,8.1,4.2
		c0.5,0.2,0.9,0.5,1.3,0.8c4.1,2.1,8.2,4.3,12.2,6.4c2.2,1.1,5.7,2.2,6.5,4.7c1.4,4.3,2.9,8.6,4.3,12.9c1.1,3.2,2.1,6.4,3.2,9.6
		c0.4,1.3,1,2.4,1.9,3.4c3.8,4.2,7.5,8.3,11.3,12.5c0,0.1,0.1,0.1,0.2,0.1c0.7,0.2,1.4-0.2,2.1-0.5c5.8-1.9,11.6-3.8,17.5-5.8
		c1.3-0.4,2.5-0.5,3.8-0.2c7.4,1.7,14.8,3.3,22.2,4.9c1.7,0.4,3.2,1,4.6,1.9c7.1,4.4,14.3,8.8,21.5,13.2c0.6,0.3,1.2,0.6,1.7,0.9
		c2.3-0.2,4.5-0.5,6.8-0.7c1.4-0.1,2.5-0.6,3.3-1.8c0.9-1.3,2-2.5,3.1-3.7c1.5-1.8,3.1-3.5,4.7-5.4c4-0.8,8.1-1.5,12.1-2.1
		c1.2-0.2,2.4-0.1,3.5,0.7c3.2,2.2,6.5,4.2,9.8,6.3c0.2,0.2,0.5,0.4,0.8,0.6c0,1.1,0,2.3,0,3.5c-0.8,0.9-1.6,1.8-2.5,2.7
		c0.1,0.5,0.3,1,0.3,1.5c0.1,1.4,0.9,2.4,2.1,3.1c1.4,0.8,2.6,1.8,4,2.8c0.1,0.9,0.2,1.7,0.2,2.7c0.7,0.4,1.3,0.9,2.1,1.4
		c-0.2,0.4-0.3,0.8-0.4,1.2c-0.2,0.4-0.5,0.7-0.6,1.1c-0.7,2.1-2.2,3.4-4.1,4.3c-1,0.5-1.9,1-2.9,1.5c-0.7,0.3-1.5,0.6-2.3,0.7
		c-3.6,0.5-7.2,0.9-10.8,1.4c-1.5,0.2-3,0.5-4.5,0.8c-5.5,1.3-11.1,2.6-16.6,3.9c-0.7,0.2-1.4,0.3-2,1c0.3,2.3,0.6,4.6,0.8,6.9
		c0.2,1.7,0.4,3.5,0.7,5.2c0.2,1.2,0.3,2.3,0.5,3.5c0.1,0.4,0.3,0.8,0.6,1.2c2.5,4.1,4.9,8.1,7.4,12.2c2.5,4.1,5,8.2,7.5,12.3
		c1.7,2.8,3.4,5.6,5.1,8.4c0.2,0.4,0.5,0.7,0.9,1.1c0.7,0,1.4,0.1,2.1,0c3.1-0.4,6.2-1.1,9.3-1.2c3.1,3.8,6.1,7.7,9,11.6
		c-1.7,1.1-3.1,1.4-4.7,0.5c-1.7-1-3.6-1.7-5.3-2.7c-2-1.1-3.7-0.2-5.6,0.5c-2.2,0.8-4.4,1.5-6.5,2.3c-0.5,0.2-1.1,0.3-1.5,0.4
		c-0.9-0.3-1.1-0.9-1.5-1.4c-2.9-4.4-5.8-8.9-8.8-13.4c-2.6-4-5.3-7.9-7.9-11.9c-5.8-8.7-11.5-17.4-17.3-26.1
		c-1.7-2.6-3.4-5.3-5.2-7.9C196.6,162.9,196.3,162.5,195.9,161.9C193.5,161.9,196.3,162.5,195.9,161.9z"/>
	<path id="XMLID_30_" class="st0" d="M167.6,214.2c2.6,0.8,5.1,0.8,7.4,0.6c2.2-0.1,3.7,0.7,5.2,2.1c1.8,1.8,3.8,3.4,5.7,5.1
		c0.2,0.2,0.4,0.4,0.7,0.7c-0.8,0.5-1.4,0.5-2.3,0.5c-4.7,0-9.5,0-14.2,0c-1.1,0-2.1-0.2-3.2-0.6c-2.1-0.9-4.3-1.8-6.5-2.7
		c-0.3-0.1-0.6-0.3-1.1-0.6c-0.2-0.8-0.5-1.6-0.7-2.4c-0.3-1.3-0.6-2.7-1-4c-0.9-2.6,1.3-6,2.2-8.4c1.2-2.9,2.4-5.9,3.5-8.8
		c1.8-4.4,3.5-8.8,5.2-13.2c0.2-0.4,0.3-0.8,0.4-1.3c-0.6-1.4-1.7-2.5-2.6-3.7c-2.9-3.8-5.9-7.6-8.8-11.4c-1.3-1.6-2.5-3.2-3.8-4.8
		c-0.3-0.4-0.5-0.8-0.8-1.5c0.7,0.1,1.1,0.1,1.5,0.2c4.5,1.3,9.1,2.7,13.6,4.1c1.3,0.4,2.7,0.8,4,1.1c0.6,0.2,1.3,0.2,1.9,0.2
		c2.2,0,4.4,0,6.6,0.2c1.1,2.8,1.5,5.7,2.4,8.4c0.8,2.8,1.5,5.6,2.3,8.5c-1.8,3.6-3.9,7-5.9,10.5c-2,3.6-4,7.1-6,10.7
		C171.6,207,169.5,210.5,167.6,214.2C170.2,215,169.5,210.5,167.6,214.2z"/>
	<path id="XMLID_29_" class="st0" d="M217.3,223c-0.6,0.1-1,0.2-1.4,0.2c-5.4,0-10.8,0-16.2,0c-1,0-1.9-0.2-2.6-0.8
		c-1.3-1-2.5-2-3.8-2.9c-0.6-0.5-0.9-1.1-0.9-1.9c0-0.5,0-1,0-1.5c0-16.1,0-32.1,0-48.2c0-0.9-0.1-1.7,0.2-2.6
		c1.6-0.5,2-0.5,2.8,0.8c1.7,2.5,3.3,5,5,7.5c1.7,2.5,3.3,5,5,7.5c0.6,0.9,0.7,1.7,0.5,2.7c-1,5.4-2,10.7-3,16.1
		c-0.6,3.3-1.3,6.6-1.9,9.9c-0.2,1.1-0.4,2.3-0.6,3.4c0,0.3,0.1,0.7,0.1,1c0.8,0.4,1.7,0.3,2.4,0.3c1.8,0,3.7,0,5.5,0
		c0.9,0,1.7,0.3,2.3,1c2.2,2.3,4.4,4.4,6.4,6.9C217.2,222.4,217.2,222.5,217.3,223C216.8,223.1,217.2,222.5,217.3,223z"/>
	<path id="XMLID_6_" class="st0" d="M160,0C71.6,0,0,71.6,0,160s71.6,160,160,160s160-71.6,160-160S248.4,0,160,0z M160,306.8
		c-81.1,0-146.8-65.7-146.8-146.8S78.9,13.2,160,13.2S306.8,78.9,306.8,160S241.1,306.8,160,306.8z"/>
</g>
</svg>
