<?xml version="1.0" encoding="utf-8"?>
<!-- Generator: Adobe Illustrator 23.0.1, SVG Export Plug-In . SVG Version: 6.00 Build 0)  -->
<svg version="1.1" id="Art" xmlns="http://www.w3.org/2000/svg" xmlns:xlink="http://www.w3.org/1999/xlink" x="0px" y="0px"
	 viewBox="0 0 36 36" style="enable-background:new 0 0 36 36;" xml:space="preserve">
<style type="text/css">
	.st0{fill:#EA4335;}
	.st1{fill:#4285F4;}
	.st2{fill:#34A853;}
	.st3{fill:#FBBC05;}
</style>
<title>Cloud_Logo_Nav</title>
<path class="st0" d="M22.1,11.4h1l2.9-2.9l0.1-1.2C20.8,2.7,12.7,3.2,8,8.5c-1.3,1.5-2.2,3.2-2.8,5.1c0.3-0.1,0.7-0.2,1-0.1l5.7-0.9
	c0,0,0.3-0.5,0.4-0.4C14.9,9.4,19.2,9,22.1,11.4L22.1,11.4z"/>
<path class="st1" d="M30,13.6c-0.7-2.4-2-4.6-3.9-6.2l-4,4c1.7,1.4,2.7,3.5,2.6,5.6v0.7c2,0,3.6,1.6,3.6,3.6s-1.6,3.6-3.6,3.6h-7.1
	l-0.7,0.7v4.3l0.7,0.7h7.1c5.1,0,9.3-4.1,9.3-9.2C34.1,18.2,32.6,15.3,30,13.6z"/>
<path class="st2" d="M10.5,30.5h7.1v-5.7h-7.1c-0.5,0-1-0.1-1.5-0.3l-1,0.3l-2.9,2.8l-0.2,1C6.5,29.8,8.5,30.5,10.5,30.5z"/>
<path class="st3" d="M10.5,12c-5.1,0-9.2,4.2-9.2,9.3c0,2.9,1.4,5.5,3.6,7.3L9,24.5c-1.8-0.8-2.6-2.9-1.8-4.7
	C8.1,18,10.2,17.2,12,18c0.8,0.4,1.4,1,1.8,1.8l4.1-4.1C16.1,13.3,13.4,12,10.5,12z"/>
</svg>
