<?xml version="1.0" encoding="utf-8"?>
<!-- Generator: Adobe Illustrator 23.0.1, SVG Export Plug-In . SVG Version: 6.00 Build 0)  -->
<svg version="1.1" id="logoHorizontal" xmlns="http://www.w3.org/2000/svg" xmlns:xlink="http://www.w3.org/1999/xlink" x="0px"
	 y="0px" viewBox="0 0 612 792" style="enable-background:new 0 0 612 792;" xml:space="preserve">
<style type="text/css">
	.st0{fill:#0091E2;}
</style>
<path class="st0" d="M218.2,376.8c-0.6-0.5-6.1-4.7-17.8-4.7c-3.1,0-6.2,0.3-9.2,0.8c-2.3-15.5-15.1-23-15.6-23.4l-3.1-1.8l-2.1,3
	c-2.6,4-4.5,8.4-5.6,13c-2.1,8.8-0.8,17.1,3.7,24.2c-5.4,3-14.1,3.8-15.9,3.8H8.6c-3.8,0-6.8,3-6.8,6.8c-0.2,12.6,2,25.2,6.3,37
	c5,13,12.3,22.6,21.9,28.5c10.8,6.6,28.2,10.4,48.1,10.4c9,0,17.9-0.8,26.7-2.4c12.2-2.2,24-6.5,34.8-12.7
	c8.9-5.2,16.9-11.7,23.8-19.5c11.4-12.9,18.2-27.3,23.3-40.1c0.7,0,1.4,0,2,0c12.5,0,20.2-5,24.4-9.2c2.8-2.7,5-5.9,6.4-9.5l0.9-2.6
	L218.2,376.8z"/>
<path class="st0" d="M21.9,387.6h19.3c0.9,0,1.7-0.8,1.7-1.7l0,0v-17.2c0-0.9-0.7-1.7-1.7-1.7c0,0,0,0,0,0H21.9
	c-0.9,0-1.7,0.8-1.7,1.7c0,0,0,0,0,0v17.2C20.3,386.8,21,387.6,21.9,387.6L21.9,387.6"/>
<path class="st0" d="M48.5,387.6h19.3c0.9,0,1.7-0.8,1.7-1.7l0,0v-17.2c0-0.9-0.7-1.7-1.7-1.7c0,0,0,0,0,0H48.5
	c-0.9,0-1.7,0.8-1.7,1.7v17.2C46.9,386.8,47.6,387.6,48.5,387.6"/>
<path class="st0" d="M75.5,387.6h19.3c0.9,0,1.7-0.8,1.7-1.7l0,0v-17.2c0-0.9-0.7-1.7-1.7-1.7c0,0,0,0,0,0H75.5
	c-0.9,0-1.7,0.8-1.7,1.7c0,0,0,0,0,0v17.2C73.9,386.8,74.6,387.6,75.5,387.6L75.5,387.6"/>
<path class="st0" d="M102.2,387.6h19.3c0.9,0,1.7-0.8,1.7-1.7v-17.2c0-0.9-0.8-1.7-1.7-1.7l0,0h-19.3c-0.9,0-1.7,0.8-1.7,1.7
	c0,0,0,0,0,0v17.2C100.5,386.8,101.3,387.6,102.2,387.6L102.2,387.6"/>
<path class="st0" d="M48.5,362.9h19.3c0.9,0,1.7-0.8,1.7-1.7V344c0-0.9-0.8-1.7-1.7-1.7l0,0H48.5c-0.9,0-1.7,0.8-1.7,1.7v17.2
	C46.9,362.1,47.6,362.9,48.5,362.9"/>
<path class="st0" d="M75.5,362.9h19.3c0.9,0,1.7-0.8,1.7-1.7V344c0-0.9-0.8-1.7-1.7-1.7l0,0H75.5c-0.9,0-1.7,0.8-1.7,1.7l0,0v17.2
	C73.9,362.1,74.6,362.9,75.5,362.9"/>
<path class="st0" d="M102.2,362.9h19.3c0.9,0,1.7-0.8,1.7-1.7V344c0-0.9-0.8-1.7-1.7-1.7h-19.3c-0.9,0-1.7,0.8-1.7,1.7l0,0v17.2
	C100.5,362.1,101.3,362.9,102.2,362.9"/>
<path class="st0" d="M102.2,338.1h19.3c0.9,0,1.7-0.8,1.7-1.7v-17.2c0-0.9-0.8-1.7-1.7-1.7h-19.3c-0.9,0-1.7,0.8-1.7,1.7l0,0v17.2
	C100.5,337.4,101.3,338.1,102.2,338.1"/>
<path class="st0" d="M129.1,387.6h19.3c0.9,0,1.7-0.8,1.7-1.7v-17.2c0-0.9-0.8-1.7-1.7-1.7l0,0h-19.3c-0.9,0-1.7,0.8-1.7,1.7
	c0,0,0,0,0,0v17.2C127.5,386.8,128.2,387.6,129.1,387.6"/>
</svg>
