<?xml version="1.0" encoding="utf-8"?>
<!-- Generator: Adobe Illustrator 19.0.0, SVG Export Plug-In . SVG Version: 6.00 Build 0)  -->
<svg version="1.1" id="Layer_1" xmlns="http://www.w3.org/2000/svg" xmlns:xlink="http://www.w3.org/1999/xlink" x="0px" y="0px"
	 viewBox="-548.8 352.8 320 320" style="enable-background:new -548.8 352.8 320 320;" xml:space="preserve">
<g>
	<path id="SVGID_1_" d="M-484.5,583.1c-9.1,0-17.4-7.4-17.4-16.6s7.4-16.6,17.4-16.6c9.9,0,17.4,7.4,17.4,16.6
		S-475.4,583.1-484.5,583.1L-484.5,583.1z M-271,492.9c-1.7-13.2-9.9-24-20.7-32.3l-4.1-3.3l-3.3,4.1c-6.6,7.4-9.1,20.7-8.3,30.6
		c0.8,7.4,3.3,14.9,7.4,20.7c-3.3,1.7-7.4,3.3-10.8,5c-7.4,2.5-14.9,3.3-22.3,3.3h-214.4l-0.8,5c-1.7,15.7,0.8,32.3,7.4,47.2
		l3.3,5.8v0.8c19.9,33.1,55.5,48,94.4,48c74.5,0,135.7-32.3,164.7-101.8c19,0.8,38.1-4.1,47.2-22.3l2.5-4.1l-4.1-2.5
		C-243.6,490.4-258.5,489.6-271,492.9L-271,492.9z M-377.7,479.6H-410v32.3h32.3V479.6z M-377.7,439.1H-410v32.3h32.3V439.1z
		 M-377.7,397.7H-410V430h32.3V397.7z M-338,479.6h-32.3v32.3h32.3V479.6z M-458,479.6h-32.3v32.3h32.3V479.6z M-417.5,479.6h-32.3
		v32.3h32.3V479.6z M-497.8,479.6H-530v32.3h32.3V479.6L-497.8,479.6z M-417.5,439.1h-32.3v32.3h32.3V439.1z M-458,439.1h-32.3v32.3
		h32.3V439.1z"/>
</g>
<rect x="-449.8" y="439.1" width="32.3" height="32.3"/>
<rect x="-410" y="479.6" width="32.3" height="32.3"/>
<rect x="-410" y="439.1" width="32.3" height="32.3"/>
<rect x="-410" y="397.7" width="32.3" height="32.3"/>
<rect x="-370.3" y="479.6" width="32.3" height="32.3"/>
<rect x="-449.8" y="479.6" width="32.3" height="32.3"/>
<path d="M-232.9,497c-10.8-6.6-25.7-7.4-38.1-4.1c-1.7-13.2-9.9-24-20.7-32.3l-4.1-3.3l-3.3,4.1c-6.6,7.4-9.1,20.7-8.3,30.6
	c0.8,7.4,3.3,14.9,7.4,20.7c-3.3,1.7-7.4,3.3-10.8,5c-7.4,2.5-14.9,3.3-22.3,3.3h-214.4l-0.8,5c-1.7,15.7,0.8,32.3,7.4,47.2l3.3,5.8
	v0.8c19.9,33.1,55.5,48,94.4,48c74.5,0,135.7-32.3,164.7-101.8c19,0.8,38.1-4.1,47.2-22.3l2.5-4.1L-232.9,497z M-484.5,583.1
	c-9.1,0-17.4-7.4-17.4-16.6s7.4-16.6,17.4-16.6c9.9,0,17.4,7.4,17.4,16.6S-475.4,583.1-484.5,583.1z"/>
<rect x="-490.3" y="479.6" width="32.3" height="32.3"/>
<rect x="-530" y="479.6" width="32.3" height="32.3"/>
<rect x="-490.3" y="439.1" width="32.3" height="32.3"/>
</svg>
