<?xml version="1.0" encoding="utf-8"?>
<!-- Generator: Adobe Illustrator 19.0.0, SVG Export Plug-In . SVG Version: 6.00 Build 0)  -->
<svg version="1.1" id="Layer_1" xmlns="http://www.w3.org/2000/svg" xmlns:xlink="http://www.w3.org/1999/xlink" x="0px" y="0px"
	 viewBox="0 0 320 320" style="enable-background:new 0 0 320 320;" xml:space="preserve">
<style type="text/css">
	.st0{fill-rule:evenodd;clip-rule:evenodd;fill:#FFFFFF;}
	.st1{fill:#FFFFFF;}
</style>
<g>
	<path id="XMLID_15_" class="st0" d="M160,0C71.6,0,0,71.6,0,160c0,70.7,45.8,130.7,109.4,151.8c8,1.5,10.9-3.5,10.9-7.7
		c0-3.8-0.1-16.4-0.2-29.8c-44.5,9.7-53.9-18.9-53.9-18.9C59,237,48.5,232,48.5,232c-14.5-9.9,1.1-9.7,1.1-9.7
		c16.1,1.1,24.5,16.5,24.5,16.5c14.3,24.5,37.4,17.4,46.6,13.3c1.4-10.3,5.6-17.4,10.2-21.4c-35.5-4-72.9-17.8-72.9-79.1
		c0-17.5,6.3-31.7,16.5-42.9c-1.7-4-7.1-20.3,1.5-42.3c0,0,13.4-4.3,44,16.4c12.8-3.5,26.5-5.3,40-5.4c13.6,0.1,27.3,1.8,40.1,5.4
		c30.5-20.7,44-16.4,44-16.4c8.7,22,3.2,38.3,1.6,42.3c10.3,11.2,16.5,25.5,16.5,42.9c0,61.5-37.4,75-73.1,78.9
		c5.7,5,10.9,14.7,10.9,29.6c0,21.4-0.2,38.6-0.2,43.9c0,4.3,2.9,9.2,11,7.7C274.2,290.6,320,230.7,320,160C320,71.6,248.4,0,160,0z
		"/>
	<path class="st1" d="M60.6,229.7c-0.4,0.8-1.6,1-2.7,0.5c-1.2-0.5-1.8-1.6-1.4-2.4c0.3-0.8,1.6-1,2.8-0.5
		C60.3,227.8,61,228.9,60.6,229.7L60.6,229.7z M58.6,228.3"/>
	<path class="st1" d="M67.1,237c-0.8,0.7-2.3,0.4-3.3-0.7c-1-1.1-1.2-2.6-0.5-3.3c0.8-0.7,2.2-0.4,3.3,0.7
		C67.7,234.8,67.9,236.2,67.1,237L67.1,237z M65.6,235.3"/>
	<path class="st1" d="M73.4,246.2c-1,0.7-2.6,0-3.6-1.4c-1-1.4-1-3.1,0-3.8c1-0.7,2.6-0.1,3.6,1.3C74.4,243.8,74.4,245.5,73.4,246.2
		L73.4,246.2z M73.4,246.2"/>
	<path class="st1" d="M82,255.1c-0.9,1-2.7,0.7-4.1-0.6c-1.4-1.3-1.8-3.1-0.9-4.1c0.9-1,2.8-0.7,4.1,0.6
		C82.5,252.3,83,254.1,82,255.1L82,255.1z M82,255.1"/>
	<path class="st1" d="M94,260.2c-0.4,1.3-2.2,1.8-4,1.3c-1.8-0.5-3-2-2.6-3.3c0.4-1.3,2.2-1.9,4-1.3C93.1,257.5,94.3,259,94,260.2
		L94,260.2z M94,260.2"/>
	<path class="st1" d="M107.1,261.2c0,1.3-1.5,2.4-3.4,2.4c-1.9,0-3.5-1-3.5-2.3c0-1.3,1.5-2.4,3.4-2.4
		C105.5,258.8,107.1,259.9,107.1,261.2L107.1,261.2z M107.1,261.2"/>
	<path class="st1" d="M119.2,259.1c0.2,1.3-1.1,2.6-3,3c-1.9,0.3-3.6-0.5-3.8-1.7c-0.2-1.3,1.1-2.6,3-3
		C117.3,257,119,257.8,119.2,259.1L119.2,259.1z M119.2,259.1"/>
</g>
</svg>
