<?xml version="1.0" encoding="utf-8"?>
<!-- Generator: Adobe Illustrator 23.0.1, SVG Export Plug-In . SVG Version: 6.00 Build 0)  -->
<svg version="1.1" id="Art" xmlns="http://www.w3.org/2000/svg" xmlns:xlink="http://www.w3.org/1999/xlink" x="0px" y="0px"
	 viewBox="0 0 156.1 156.1" style="enable-background:new 0 0 156.1 156.1;" xml:space="preserve">
<style type="text/css">
	.st0{clip-path:url(#SVGID_2_);}
	.st1{clip-path:url(#SVGID_4_);}
	.st2{clip-path:url(#SVGID_6_);}
	.st3{fill:#0F9D58;}
	.st4{fill:#4285F4;}
	.st5{fill:#E1E1E1;}
	.st6{opacity:0.5;fill:#C2C2C2;enable-background:new    ;}
	.st7{fill:#F1F1F1;}
	.st8{fill:#FFEB3B;}
	.st9{opacity:0.5;fill:#FFCD40;enable-background:new    ;}
	.st10{fill:#FFFFFF;fill-opacity:0.2;}
	.st11{fill:#263238;fill-opacity:0.1;}
	.st12{fill:none;}
	.st13{fill:#EEEEEE;}
	.st14{clip-path:url(#SVGID_8_);}
	.st15{fill:#DB4437;}
	.st16{fill:#7B231E;}
	.st17{fill:#3E2723;fill-opacity:0.2;}
	.st18{fill:url(#SVGID_9_);}
</style>
<title>maps_lockup</title>
<g>
	<defs>
		<rect id="SVGID_1_" width="156.1" height="156.1"/>
	</defs>
	<clipPath id="SVGID_2_">
		<use xlink:href="#SVGID_1_"  style="overflow:visible;"/>
	</clipPath>
	<g class="st0">
		<g>
			<defs>
				<path id="SVGID_3_" d="M120.3,3.2c-10.2,0-19.9,4.8-26,13H26c-5.4,0-9.7,4.4-9.7,9.8v104.1c0,5.4,4.4,9.7,9.7,9.8h104.1
					c5.4,0,9.7-4.4,9.8-9.8V66.4c6.8-10,13-19,13-30.6C152.9,17.8,138.3,3.3,120.3,3.2C120.3,3.2,120.3,3.2,120.3,3.2z"/>
			</defs>
			<clipPath id="SVGID_4_">
				<use xlink:href="#SVGID_3_"  style="overflow:visible;"/>
			</clipPath>
			<g class="st1">
				<g>
					<defs>
						<path id="SVGID_5_" d="M26,16.3h104.1c5.4,0,9.8,4.4,9.8,9.8v104.1c0,5.4-4.4,9.8-9.8,9.8H26c-5.4,0-9.8-4.4-9.8-9.8V26
							C16.3,20.6,20.6,16.3,26,16.3z"/>
					</defs>
					<clipPath id="SVGID_6_">
						<use xlink:href="#SVGID_5_"  style="overflow:visible;"/>
					</clipPath>
					<g class="st2">
						<path class="st3" d="M16.3,133.4V16.3h117.1L78.1,78.1"/>
						<path class="st4" d="M22.8,139.9l55.3-61.8l55.3,61.8"/>
						<path class="st5" d="M139.9,133.4L78.1,78.1l61.8-55.3"/>
						<path class="st6" d="M139.9,133.4L78.1,78.1l61.8-55.3"/>
						<path class="st7" d="M81.3,71.6l-11.4,9.8l58.5,58.5h21.1"/>
						<path class="st8" d="M139.9,6.5L6.5,139.9h21.1L139.9,27.6"/>
						<path class="st9" d="M139.9,6.5L6.5,139.9h21.1L139.9,27.6"/>
						<path class="st10" d="M130.1,16.3H26c-5.4,0-9.7,4.4-9.7,9.7v0.8c0-5.4,4.4-9.7,9.7-9.7h104.1c5.4,0,9.7,4.4,9.8,9.8V26
							C139.8,20.6,135.5,16.3,130.1,16.3z"/>
						<path class="st11" d="M130.1,139H26c-5.4,0-9.7-4.4-9.8-9.8v0.8c0,5.4,4.4,9.8,9.8,9.8h104.1c5.4,0,9.7-4.4,9.8-9.8v-0.8
							C139.8,134.7,135.5,139,130.1,139z"/>
						<path class="st12" d="M26,26h35.8v35.8H26V26z"/>
						<path class="st13" d="M43.9,40.7v6.9h9.6c-0.8,4.1-4.4,7.1-9.6,7.1c-5.9-0.2-10.6-5.1-10.4-11.1c0.2-5.7,4.7-10.3,10.4-10.4
							c2.5,0,5,0.9,6.8,2.7l5.1-5.1c-3.2-3.1-7.5-4.7-12-4.7C34,26,26,34,26,43.9s8,17.9,17.9,17.9c10.3,0,17.2-7.3,17.2-17.5
							c0-1.2-0.1-2.5-0.3-3.7L43.9,40.7z"/>
					</g>
				</g>
				<g>
					<defs>
						<path id="SVGID_7_" d="M120.3,3.2c-10.2,0-19.9,4.8-26,13H26c-5.4,0-9.7,4.4-9.7,9.8v104.1c0,5.4,4.4,9.7,9.7,9.8h104.1
							c5.4,0,9.7-4.4,9.8-9.8V66.4c6.8-10,13-19,13-30.6C152.9,17.8,138.3,3.3,120.3,3.2C120.3,3.2,120.3,3.2,120.3,3.2z"/>
					</defs>
					<clipPath id="SVGID_8_">
						<use xlink:href="#SVGID_7_"  style="overflow:visible;"/>
					</clipPath>
					<g class="st14">
						
							<image style="overflow:visible;opacity:0.2;enable-background:new    ;" width="65" height="92" xlink:href="E47BDD2A6AD70F4E.png"  transform="matrix(1.5946 0 0 1.5946 75.1466 -9.76)">
						</image>
						<path class="st15" d="M120.3,3.2c-18,0-32.5,14.5-32.5,32.5c0,0,0,0,0,0c0,24.5,27.4,37.3,30.6,72.3c0.1,1.1,1.1,1.8,2.1,1.7
							c0.9-0.1,1.6-0.8,1.7-1.7c3.2-35,30.6-47.8,30.6-72.3C152.9,17.8,138.3,3.3,120.3,3.2C120.4,3.2,120.4,3.2,120.3,3.2z"/>
						<circle class="st16" cx="120.3" cy="35.8" r="11.4"/>
						<path class="st10" d="M120.3,4.1c17.8,0,32.3,14.3,32.5,32c0-0.1,0-0.2,0-0.3c-0.3-18-15.1-32.3-33.1-32
							c-17.5,0.3-31.6,14.4-32,32c0,0.1,0,0.2,0,0.3C88.1,18.3,102.6,4.1,120.3,4.1z"/>
						<path class="st17" d="M122.3,107.2c-0.1,1.1-1.1,1.8-2.1,1.7c-0.9-0.1-1.6-0.8-1.7-1.7c-3.2-34.8-30.3-47.6-30.6-71.9
							c0,0.2,0,0.3,0,0.5c0,24.5,27.4,37.3,30.6,72.3c0.1,1.1,1.1,1.8,2.1,1.7c0.9-0.1,1.6-0.8,1.7-1.7c3.2-35,30.6-47.8,30.6-72.3
							c0-0.2,0-0.3,0-0.5C152.6,59.6,125.5,72.4,122.3,107.2z"/>
					</g>
				</g>
				
					<radialGradient id="SVGID_9_" cx="19.65" cy="-10726.7402" r="166.61" gradientTransform="matrix(1 0 0 1 0 10745.7002)" gradientUnits="userSpaceOnUse">
					<stop  offset="0" style="stop-color:#FFFFFF;stop-opacity:0.1"/>
					<stop  offset="1" style="stop-color:#FFFFFF;stop-opacity:0"/>
				</radialGradient>
				<path class="st18" d="M120.3,3.2c-10.2,0-19.9,4.8-26,13H26c-5.4,0-9.7,4.4-9.7,9.8v104.1c0,5.4,4.4,9.7,9.7,9.8h104.1
					c5.4,0,9.7-4.4,9.8-9.8V66.4c6.8-10,13-19,13-30.6C152.9,17.8,138.3,3.3,120.3,3.2C120.3,3.2,120.3,3.2,120.3,3.2z"/>
				<path class="st12" d="M0,0h156.1v156.1H0V0z"/>
			</g>
		</g>
	</g>
</g>
</svg>
