<?xml version="1.0" encoding="utf-8"?>
<!-- Generator: Adobe Illustrator 19.0.0, SVG Export Plug-In . SVG Version: 6.00 Build 0)  -->
<svg version="1.1" id="Layer_1" xmlns:sketch="http://www.bohemiancoding.com/sketch/ns"
	 xmlns="http://www.w3.org/2000/svg" xmlns:xlink="http://www.w3.org/1999/xlink" x="0px" y="0px" viewBox="49 393 240 240"
	 style="enable-background:new 49 393 240 240;" xml:space="preserve">
<style type="text/css">
	.st0{fill:#169CEE;}
	.st1{fill:#FFFFFF;}
</style>
<title>logo</title>
<desc>Created with Sketch.</desc>
<path class="st0" d="M169,633c67.1,0,120-53.1,120-120s-52.9-120-120-120S49,446.3,49,513C49,579.9,101.9,633,169,633"/>
<path class="st1" d="M189,542.2h-59c-8.6,0-13.6,5.3-13.6,12.9c0,6.8,4.6,11.6,11.2,11.6c7.7,0,12.1-5.3,12.5-12.9h17.1
	c-0.9,18.6-12.5,28.5-29.8,28.5c-16.2,0-28.3-11-28.3-27.4c0-17.1,12.7-29,31.8-29h58.4c19.7,0,34.7-14.5,34.7-34
	c0-19.7-13.4-33.6-32.5-33.6c-18.9,0-34.2,13.8-34.2,39.3v16.7H140v-16.7c0-33.8,21.7-55.7,51.8-55.7c28.7,0,49.6,20.6,49.6,49.8
	C241.6,520.9,219.2,542.2,189,542.2"/>
</svg>
