<?xml version="1.0" encoding="UTF-8" standalone="no"?>
<svg width="171px" height="45px" viewBox="0 0 171 45" version="1.1" xmlns="http://www.w3.org/2000/svg" xmlns:xlink="http://www.w3.org/1999/xlink">
    <g id="Page-1" stroke="none" stroke-width="1" fill="none" fill-rule="evenodd">
        <g id="reindex_white_text_rgb" transform="translate(-44.000000, -107.000000)">
            <g id="Group-9">
                <path d="M260,260 L0,260 L0,0 L260,0 L260,260 Z" id="Stroke-2" stroke="#C64646"></path>
                <path d="M181.001356,132.924079 L192.331398,132.106704 C192.23796,128.347808 190.951231,125.901912 186.852169,125.901912 C182.37069,125.901912 181.001356,128.476454 181.001356,132.803017 L181.001356,132.924079 Z M118.568856,132.924079 L129.898627,132.106704 C129.80546,128.347808 128.51819,125.901912 124.418856,125.901912 C119.937377,125.901912 118.568856,128.476454 118.568856,132.803017 L118.568856,132.924079 Z M99.6118771,131.344579 L105.978356,131.344579 C109.54794,131.344579 112.160669,129.766433 112.160669,125.906517 C112.160669,121.166933 108.486544,119.818725 104.356877,119.818725 C102.777919,119.818725 101.159419,120.018871 99.6118771,120.336287 L99.6118771,131.344579 Z M173.494669,136.690017 L173.494669,127.066767 C171.855044,126.272954 170.090565,125.901912 168.270023,125.901912 C163.581356,125.901912 162.456044,128.854808 162.456044,133.2266 C162.456044,136.981162 163.184315,140.550746 167.643585,140.550746 C170.70346,140.550746 172.063044,139.205517 173.494669,136.690017 L173.494669,136.690017 Z M203.565023,134.1691 L198.171377,141.712621 L196.042627,141.712621 L202.478981,132.837142 L196.49871,124.741121 L198.812169,124.741121 L203.597523,131.497329 L208.325731,124.741121 L210.490231,124.741121 L204.719585,132.768621 L211.434085,141.712621 L209.118731,141.712621 L203.565023,134.1691 Z M181.047127,134.476496 C181.26569,138.659787 182.973835,140.550746 187.183669,140.550746 C189.161023,140.550746 190.84994,140.216267 192.622815,139.334704 L192.79371,139.250746 L193.51494,140.691579 L193.352169,140.779058 C191.43521,141.801454 189.295627,142.102621 187.147106,142.102621 C181.334752,142.102621 179.147502,138.990475 179.147502,133.2591 C179.147502,127.804246 181.113481,124.350579 186.852169,124.350579 C192.57244,124.350579 194.225877,128.0006 194.225877,133.2266 L194.225877,133.533996 L181.047127,134.476496 Z M136.660794,121.509808 C135.936315,121.509808 135.364856,121.19835 135.364856,120.408871 C135.364856,119.619662 135.935773,119.307121 136.660794,119.307121 C137.386356,119.307121 137.955919,119.619662 137.955919,120.408871 C137.955919,121.19835 137.386356,121.509808 136.660794,121.509808 L136.660794,121.509808 Z M118.613815,134.476496 C118.832377,138.659787 120.541335,140.550746 124.750627,140.550746 C126.729335,140.550746 128.41744,140.216267 130.19194,139.334704 L130.361752,139.250746 L131.082169,140.692121 L130.918856,140.779058 C129.001898,141.801454 126.862315,142.102621 124.714335,142.102621 C118.902523,142.102621 116.71446,138.990475 116.71446,133.2591 C116.71446,127.804246 118.680981,124.350579 124.418856,124.350579 C130.139127,124.350579 131.792565,128.0006 131.792565,133.2266 L131.792565,133.533996 L118.613815,134.476496 Z M106.943606,132.993954 L99.6118771,132.993954 L99.6118771,141.712621 L97.7201063,141.712621 L97.7201063,118.886246 L97.8736688,118.856183 C99.9639604,118.445058 102.149856,118.168808 104.283481,118.168808 C109.487002,118.168808 114.051898,119.967954 114.051898,125.906517 C114.051898,129.513204 112.16419,131.684746 108.827523,132.535162 L114.836502,141.712621 L112.620815,141.712621 L106.943606,132.993954 Z M137.588398,124.741121 L137.588398,141.712621 L135.733731,141.712621 L135.733731,124.739496 L137.588398,124.741121 Z M175.102877,141.712621 L173.494669,141.712621 L173.494669,139.399704 C171.95769,141.394662 170.07946,142.102621 167.422315,142.102621 C162.011877,142.102621 160.601648,137.956162 160.601648,133.2266 C160.601648,127.745475 162.612856,124.350579 168.270023,124.350579 C170.163148,124.350579 171.770002,124.6661 173.494669,125.362412 L173.494669,118.191829 L175.349335,117.946725 L175.349335,141.797392 L175.102877,141.712621 Z M144.572377,127.069746 C146.120731,125.061787 148.055565,124.350579 150.718127,124.350579 C155.782169,124.350579 157.097065,127.742767 157.097065,132.119975 L157.097065,141.712621 L155.24321,141.712621 L155.24321,132.510517 C155.24321,128.895704 154.805815,125.901912 150.496856,125.901912 C147.44321,125.901912 146.008335,127.241183 144.572377,129.763183 L144.572377,141.712621 L142.717981,141.712621 L142.717981,124.741121 L144.572377,124.741121 L144.572377,127.069746 Z" id="Fill-4" fill="#FEFEFE"></path>
                <path d="M50.5210604,139.244706 C51.5941021,139.244706 52.4653729,140.109477 52.4759354,141.180352 L67.3690604,147.780831 L82.2621854,141.180352 C82.2727479,140.109477 83.1434771,139.244706 84.2170604,139.244706 C85.2966021,139.244706 86.1722063,140.12031 86.1722063,141.199852 C86.1722063,142.280206 85.2966021,143.155269 84.2170604,143.155269 C83.7184563,143.155269 83.2631854,142.968665 82.9186854,142.66181 L67.6954146,149.407727 C67.4947271,149.495748 67.2591021,149.50279 67.0427063,149.407727 L51.8194354,142.66181 C51.4743938,142.968665 51.0193938,143.155269 50.5210604,143.155269 C49.4415188,143.155269 48.5659146,142.280206 48.5659146,141.199852 C48.5659146,140.12031 49.4415188,139.244706 50.5210604,139.244706" id="Fill-5" fill="#5BBAE9"></path>
                <path d="M84.2170333,131.778021 C85.296575,131.778021 86.1721792,132.653083 86.1721792,133.733438 C86.1721792,134.812979 85.296575,135.688583 84.2170333,135.688583 C83.7184292,135.688583 83.2634292,135.501167 82.9186583,135.194312 L67.6953875,141.941042 C67.4787208,142.036917 67.2433667,142.029063 67.0426792,141.940771 L50.1946792,134.474167 C49.7857208,134.294333 49.5993875,133.815771 49.7797625,133.406813 C49.8642625,133.21425 50.0159292,133.07125 50.1946792,132.992167 L65.4138875,126.247062 C65.4247208,125.176458 66.2951792,124.311417 67.3690333,124.311417 C68.4488458,124.311417 69.3241792,125.186208 69.3241792,126.266563 C69.3241792,127.346375 68.4488458,128.221979 67.3690333,128.221979 C66.8701583,128.221979 66.4151583,128.035375 66.0698458,127.727708 L52.5197833,133.733438 L67.3690333,140.314146 L82.2621583,133.713667 C82.2727208,132.643063 83.14345,131.778021 84.2170333,131.778021" id="Fill-6" fill="#5BBAE9"></path>
                <path d="M84.2170333,116.845165 C85.296575,116.845165 86.1721792,117.720498 86.1721792,118.800581 C86.1721792,119.880394 85.296575,120.755185 84.2170333,120.755185 C83.14345,120.755185 82.2727208,119.890415 82.2621583,118.820081 L67.3690333,112.219331 L52.4759083,118.820081 C52.4653458,119.890415 51.594075,120.755185 50.5210333,120.755185 C49.4414917,120.755185 48.5658875,119.880394 48.5658875,118.800581 C48.5658875,117.720498 49.4414917,116.845165 50.5210333,116.845165 C51.0193667,116.845165 51.4743667,117.03204 51.8194083,117.338894 L67.0426792,110.592165 C67.259075,110.497102 67.4947,110.504415 67.6953875,110.592435 L82.9186583,117.338894 C83.2634292,117.031498 83.7184292,116.845165 84.2170333,116.845165" id="Fill-7" fill="#74CBC9"></path>
                <path d="M51.8194354,124.805525 L67.0427063,118.059067 C67.2591021,117.963733 67.4947271,117.971046 67.6954146,118.059608 L84.5434146,125.525671 C84.9523729,125.705504 85.1378938,126.184337 84.9583313,126.593025 C84.8738313,126.785587 84.7221646,126.928858 84.5434146,127.007671 L69.3239354,133.752775 C69.3125604,134.82365 68.4423729,135.688421 67.3690604,135.688421 C66.2887063,135.688421 65.4139146,134.813629 65.4139146,133.733275 C65.4139146,132.653462 66.2887063,131.778129 67.3690604,131.778129 C67.8671229,131.778129 68.3221229,131.964733 68.6674354,132.272129 L82.2180396,126.266671 L67.3690604,119.686504 L52.4759354,126.286171 C52.4653729,127.357046 51.5941021,128.221817 50.5210604,128.221817 C49.4415188,128.221817 48.5659146,127.347025 48.5659146,126.266671 C48.5659146,125.187129 49.4415188,124.311525 50.5210604,124.311525 C51.0193938,124.311525 51.4743938,124.498129 51.8194354,124.805525" id="Fill-8" fill="#74CBC9"></path>
            </g>
        </g>
    </g>
</svg>
