<?xml version="1.0" encoding="UTF-8" standalone="no"?>
<svg width="97px" height="44px" viewBox="0 0 97 44" version="1.1" xmlns="http://www.w3.org/2000/svg" xmlns:xlink="http://www.w3.org/1999/xlink">
    <!-- Generator: Sketch 3.8.3 (29802) - http://www.bohemiancoding.com/sketch -->
    <title>Group 4</title>
    <desc>Created with Sketch.</desc>
    <defs></defs>
    <g id="Page-1" stroke="none" stroke-width="1" fill="none" fill-rule="evenodd">
        <g id="Group-4">
            <g id="symbol">
                <path d="M19.4000196,2.73030042 L19.6530194,3.21114408 C20.0270321,3.91958668 23.3003118,10.1971552 23.3003118,12.4652208 L23.3001337,12.4652208 L23.3001337,12.5981895 L21.8161993,16.68476 C22.0574634,18.9123018 22.5373187,23.7523614 22.1750663,24.6979767 C21.9514426,25.2828579 21.099,26.4860887 20.3698623,27.4604687 L21.3571918,36.7644765 L19.9944241,37.7754002 L19.3774336,31.9519631 L19.194463,32.0876937 L19.1471306,31.6409488 C19.0534448,32.1073926 18.9325903,32.5763367 18.7759871,33.0124082 C18.463805,33.8825841 17.9121406,34.5420001 17.2065234,34.9325843 C17.1651842,37.0186547 15.2723127,38.1440943 13.4888474,38.1440943 C11.6905927,38.1440943 9.7818626,37.0195592 9.73981067,34.9342125 C9.03276799,34.5429047 8.4803909,33.8834886 8.16785238,33.0124082 C8.01605977,32.5890826 7.89743378,32.1354103 7.80453467,31.6828549 L7.75653748,32.1369245 L7.58004363,32.010497 L6.96473944,37.8314822 L5.60197171,36.8552932 L6.59179582,27.4886906 C5.8569561,26.5099688 4.98812039,25.2888279 4.76235853,24.697434 C4.40010607,23.7516378 4.86125185,18.9123018 5.10287228,16.6843981 L3.59203185,12.5983704 L3.59203185,12.4652208 C3.59203185,10.1971552 6.89150493,3.91958668 7.26605224,3.21114408 L7.34693601,3.06059743 C7.68010233,2.39296923 7.93615088,1.90651307 8.02104068,1.74594711 L8.95908072,0 C8.95908072,0 9.81578328,6.06777761 9.81515761,6.07317712 L10.2770606,9.35115549 L10.7077395,12.9714244 C11.2325572,12.8012101 11.9710496,12.603807 12.7633162,12.5233571 C12.9769732,11.9896018 13.208807,11.6341208 13.4636125,11.6341208 C13.9514487,11.6341208 14.4376628,12.1114304 14.8759498,12.62547 C15.3685533,12.7167057 15.8171345,12.8396577 16.1749031,12.952917 L16.6601751,9.3513143 L17.9761216,0 L18.8947657,1.74594711 C18.9648311,1.87866259 19.1508032,2.2340203 19.4000196,2.73030042 Z" id="Shape-Copy-45" fill="#FFFFFF"></path>
                <path d="M26.9140127,34.231106 L13.4569111,43.9791375 L0,34.231106 L0,11.4997304 C0,11.4997304 4.97582791,9.6031746 13.4752004,9.6031746 C21.9745729,9.6031746 26.9140127,11.4997304 26.9140127,11.4997304 L26.9140127,34.231106 L26.9140127,34.231106 L26.9140127,34.231106 Z" id="Shape-Copy-44" fill="#FFFFFF"></path>
                <polygon id="Shape-Copy-42" fill="#3B3B63" points="19.2470446 28.0995873 13.4465159 28.0995873 13.4465159 18.1676349 7.56085987 27.8092222 6.64578344 37.709746 13.3558854 42.6108571 13.4465159 42.6772063 20.3088153 37.6744762"></polygon>
                <g id="Shape-+-Shape-Copy" transform="translate(0.859873, 10.650794)">
                    <path d="M12.4872084,31.9245342 L0,22.8716571 L0,1.76130806 C0,1.76130806 4.61727059,0 12.5041797,0 C20.3910889,0 24.9745935,1.76130806 24.9745935,1.76130806 L24.9745935,22.8716571 L12.4872084,31.9245342 Z" id="Shape" fill="#DBDBDB"></path>
                    <path d="M12.6680961,0 C12.6622622,0 12.6567819,0.000178504922 12.650948,0.000178504922 L12.650948,31.9239987 L12.6511248,31.9239987 L25.1385099,22.8711216 L25.1385099,1.76130806 C25.1385099,1.76130806 20.5550053,0 12.6680961,0 L12.6680961,0 L12.6680961,0 Z" id="Shape" fill="#C6C6C6"></path>
                </g>
                <polygon id="Shape-Copy-41" fill="#3B3B63" points="20.2745924 37.6540476 19.2148854 28.0995873 13.4140127 28.0995873 13.4140127 42.6550317"></polygon>
                <polygon id="Shape-Copy-40" fill="#53537A" points="6.64578344 37.709746 13.4465159 42.6772063 13.4465159 18.1676349 7.56085987 27.8092222"></polygon>
                <path d="M16.3733503,34.8874603 C16.3733503,36.5255873 14.8684013,37.3376667 13.4877898,37.3376667 C12.1071783,37.3376667 10.5717898,36.5255873 10.5717898,34.8874603" id="Shape-Copy-39" fill="#BC9375"></path>
                <path d="M15.5272357,33.9590952 C15.5272357,35.880254 14.5098344,36.3953333 13.4724841,36.3953333 C12.4353057,36.3953333 11.4175605,35.880254 11.4175605,33.9590952" id="Shape-Copy-38" fill="#083251"></path>
                <path d="M13.4724841,35.7346349 C12.3641083,35.7346349 11.8251401,34.9078889 11.8251401,33.2083016 L12.3536178,33.2083016 C12.3536178,35.1980794 13.1091019,35.1980794 13.4724841,35.1980794 C13.8356943,35.1980794 14.5913503,35.1980794 14.5913503,33.2083016 L15.1196561,33.2083016 C15.1196561,34.9078889 14.5806879,35.7346349 13.4724841,35.7346349 L13.4724841,35.7346349 Z" id="Shape-Copy-37" fill="#FFFFFF"></path>
                <g id="Group-Copy-11" transform="translate(4.643312, 4.979986)">
                    <path d="M17.6272166,8.64761698 C17.6272166,6.57507729 14.182051,0.0539979296 14.182051,0.0539979296 L13.0165796,8.32407729 L11.9706306,10.070109 L8.83570701,10.1996646 L8.82332484,10.2253313 L8.82332484,10.1996646 L5.68788535,10.070109 L4.64228025,8.32407729 L3.47680892,0.0539979296 C3.47680892,0.0539979296 0.0312993631,6.57507729 0.0312993631,8.64761698 L1.48689172,12.6299662 C1.48689172,12.6299662 0.752388535,19.3191884 1.08773885,20.1949979 C1.42205732,21.0709821 3.74440127,24.0002995 3.74440127,24.0002995 C3.74440127,24.0002995 3.73752229,26.4629027 4.3733121,28.2333789 C4.82698089,29.4976805 5.82649682,30.01049 6.78353503,30.01049 C8.24944586,30.01049 8.82298089,28.6431725 8.82298089,28.6431725 C8.82298089,28.6431725 9.41027389,30.01049 10.8761847,30.01049 C11.833051,30.01049 12.831535,29.4985535 13.2862357,28.2333789 C13.9213376,26.4636011 13.9149745,24.0002995 13.9149745,24.0002995 C13.9149745,24.0002995 16.2368025,21.0709821 16.5718089,20.1949979 C16.9069873,19.3190138 16.1723121,12.6299662 16.1723121,12.6299662 L17.6272166,8.64761698 L17.6272166,8.64761698 Z" id="Shape" fill="#C49A7E"></path>
                    <path d="M8.82917197,10.2129344 L8.82315287,10.2253313 L8.82315287,10.1998392 L5.68771338,10.0702836 L4.64210828,8.3242519 L3.47629299,0.0541725328 C3.47629299,0.0541725328 0.0311273885,6.5752519 0.0311273885,8.64779158 L1.4863758,12.6301408 C1.4863758,12.6301408 0.752044586,19.319363 1.08687898,20.1951725 C1.42188535,21.0711567 3.74336943,24.0004741 3.74336943,24.0004741 C3.74336943,24.0004741 3.73735032,26.4630773 4.37245223,28.2335535 C4.82680892,29.4978551 5.82632484,30.0106646 6.78250318,30.0106646 C8.24927389,30.0106646 8.82280892,28.6433471 8.82280892,28.6433471 C8.82280892,28.6433471 8.82538854,28.648236 8.82934395,28.6571408 L8.82934395,10.2129344 L8.82917197,10.2129344 L8.82917197,10.2129344 Z" id="Shape" fill="#D8B7A0"></path>
                </g>
                <path d="M20.8469236,18.0019365 C20.5798471,17.4337778 20.9595669,16.0895079 20.9595669,16.0895079 C18.7839172,13.8222857 18.2397898,9.09455556 18.2397898,9.09455556 C17.833586,10.5842698 16.9506688,14.9765873 16.9506688,14.9765873 C16.9506688,14.9765873 15.3268854,14.3618095 13.479707,14.3588413 L13.479707,14.3588413 L13.473172,14.3588413 L13.465949,14.3588413 L13.465949,14.3588413 C13.3644841,14.3593651 13.2645669,14.3619841 13.1646497,14.3653016 L13.1646497,32.899254 L13.3025732,33.1045873 L13.3025732,33.0031429 L13.3878726,33.0031429 L13.3878726,33.1045873 L13.3887325,33.0031429 L13.5570955,33.0031429 L13.5570955,33.1045873 L13.5570955,33.0031429 L13.6432548,33.0031429 L13.6432548,33.1045873 L15.147172,30.8719365 L15.4740955,24.6026349 L17.3465541,26.774 L19.7586688,27.4903968 C19.7586688,27.4903968 20.6611911,26.8363333 20.6611911,26.8387778 C21.0443503,26.2933175 21.1714395,25.8286984 21.2641338,25.5875714 C21.5991401,24.7103651 20.8469236,18.0019365 20.8469236,18.0019365 L20.8469236,18.0019365 Z" id="Shape-Copy-36" fill="#3B3B63"></path>
                <path d="M13.4893376,14.3586667 C13.4869299,14.3586667 13.4850382,14.3584921 13.4829745,14.3584921 L13.4829745,14.3586667 C11.6351083,14.3618095 10.0111529,14.9762381 10.0111529,14.9762381 C10.0111529,14.9762381 9.12789172,10.5840952 8.72203185,9.09420635 C8.72203185,9.09420635 8.17824841,13.8219365 6.00225478,16.0891587 C6.00225478,16.0891587 6.38197452,17.4336032 6.11489809,18.0015873 C6.11489809,18.0015873 5.36268153,24.7103651 5.6976879,25.5861746 C5.79021019,25.8274762 5.91833121,26.2919206 6.30097452,26.837381 C6.30097452,26.8349365 7.20401274,27.4891746 7.20401274,27.4891746 L9.61561146,26.7726032 L11.4877261,24.6015873 L11.8155096,30.8708889 L13.3185669,33.1035397 L13.3185669,33.0020952 L13.4047261,33.0020952 L13.4047261,33.1035397 L13.4047261,33.0020952 L13.4891656,33.0020952 L13.4891656,14.3586667 L13.4893376,14.3586667 L13.4893376,14.3586667 Z" id="Shape-Copy-35" fill="#53537A"></path>
                <g id="Group-Copy-10" transform="translate(8.171618, 22.174603)">
                    <g id="Group" transform="translate(6.790165, 0.000000)">
                        <path d="M2.8876242,0.0235714286 L2.8876242,0.0235714286 L0.774057325,0.0235714286 L0.774057325,0.0235714286 L0.0696496815,0.0235714286 L0.0696496815,0.0537777778 C0.0696496815,1.05320635 0.920579618,1.86284127 1.91871975,1.86284127 C2.91720382,1.86284127 3.76813376,1.05303175 3.76813376,0.0537777778 L3.76813376,0.0235714286 L2.8876242,0.0235714286 L2.8876242,0.0235714286 Z" id="Shape" fill="#333152"></path>
                        <path d="M0.774057325,0.0235714286 L0.774057325,0.0537777778 C0.774057325,0.648301587 1.24526752,1.13003175 1.83101274,1.13003175 C2.41675796,1.13003175 2.88779618,0.648301587 2.88779618,0.0537777778 L2.88779618,0.0235714286 L0.774057325,0.0235714286 L0.774057325,0.0235714286 Z" id="Shape" fill="#FFFFFF"></path>
                        <path d="M2.15707643,0.0235714286 L1.66178981,0.0235714286 C1.65697452,0.0235714286 1.65284713,0.026015873 1.64854777,0.0268888889 C1.70994268,0.039984127 1.74399363,0.181412698 1.73075159,0.27552381 C1.71097452,0.419396825 1.59024841,0.519269841 1.45198089,0.521714286 C1.49222293,0.709761905 1.64321656,0.860968254 1.84373885,0.889603175 C2.09998089,0.926444444 2.33678981,0.748 2.37307643,0.488015873 C2.39921656,0.296650794 2.30858599,0.0235714286 2.15707643,0.0235714286 L2.15707643,0.0235714286 Z" id="Shape" fill="#333152"></path>
                    </g>
                    <g id="Group">
                        <path d="M2.87533708,0.0235714286 L2.87533708,0.0235714286 L0.762114147,0.0235714286 L0.762114147,0.0235714286 L0.057534529,0.0235714286 L0.057534529,0.0537777778 C0.057534529,1.05320635 0.90863644,1.86284127 1.90660459,1.86284127 C2.90508867,1.86284127 3.75619058,1.05303175 3.75619058,0.0537777778 L3.75619058,0.0235714286 L2.87533708,0.0235714286 L2.87533708,0.0235714286 Z" id="Shape" fill="#333152"></path>
                        <path d="M0.762114147,0.0235714286 L0.762114147,0.0537777778 C0.762114147,0.648301587 1.23366829,1.13003175 1.81855364,1.13003175 C2.40447083,1.13003175 2.87550905,0.648301587 2.87550905,0.0537777778 L2.87550905,0.0235714286 L0.762114147,0.0235714286 L0.762114147,0.0235714286 Z" id="Shape" fill="#FFFFFF"></path>
                        <path d="M2.14513326,0.0235714286 L1.64933071,0.0235714286 C1.64503134,0.0235714286 1.64038803,0.026015873 1.63643262,0.0268888889 C1.69765555,0.039984127 1.73153453,0.181412698 1.71863644,0.27552381 C1.6986874,0.419396825 1.57864918,0.519269841 1.43952179,0.521714286 C1.48027975,0.709761905 1.63127338,0.860968254 1.83145173,0.889603175 C2.08752179,0.926444444 2.32484663,0.748 2.36061733,0.488015873 C2.38710141,0.296650794 2.29664281,0.0235714286 2.14513326,0.0235714286 L2.14513326,0.0235714286 Z" id="Shape" fill="#333152"></path>
                    </g>
                </g>
                <path d="M17.6368471,21.3450635 C17.7551656,21.2134127 18.7596688,20.0561429 17.4162038,20.0561429 C16.2022357,20.0561429 15.3287771,21.0506825 15.0972994,21.3450635 L17.6368471,21.3450635 L17.6368471,21.3450635 Z" id="Shape-Copy-34" fill="#C49A7E"></path>
                <path d="M11.8419936,21.3450635 C11.6106879,21.0506825 10.7372293,20.0561429 9.5229172,20.0561429 C8.18014013,20.0561429 9.18464331,21.2134127 9.30227389,21.3450635 L11.8419936,21.3450635 L11.8419936,21.3450635 Z" id="Shape-Copy-33" fill="#D8B7A0"></path>
                <rect id="Rectangle-path-Copy-3" fill="#53537A" x="7.58098089" y="21.6968889" width="5.13911465" height="0.490634921"></rect>
                <path d="M22.9572229,13.6447143 C22.9572229,11.4557143 19.798051,5.39698413 19.4370764,4.7132381 L18.4270701,2.79365079 L16.9802484,13.0749841 L16.3124713,14.191746 C15.6677389,13.9719206 14.5705414,13.6651429 13.4657771,13.6651429 C12.3622166,13.6651429 11.272414,13.970873 10.6304331,14.1910476 L9.9623121,13.0748095 L9.45447134,9.4708254 C9.45515924,9.46488889 9.45601911,9.45685714 9.45601911,9.45319048 L9.45206369,9.45266667 L8.51325478,2.79365079 L7.48192357,4.7132381 C7.12043312,5.39698413 3.93598089,11.4557143 3.93598089,13.6447143 L3.93598089,13.7732222 L5.39415287,17.7168095 C5.16095541,19.8670476 4.71588535,24.5376825 5.06550955,25.4505079 C5.28340127,26.0212857 6.12194904,27.1998571 6.83117197,28.1444603 L5.8758535,37.1845397 L7.19111465,38.1266984 L7.88623567,31.550619 C7.98615287,32.1901905 8.13353503,32.8655556 8.35228662,33.475619 C8.65392994,34.3163333 9.18705096,34.9527619 9.86944586,35.3304286 C9.91003185,37.3430794 11.7522229,38.4284127 13.4877898,38.4284127 C15.2090828,38.4284127 17.0359682,37.3422063 17.0758662,35.3288571 C17.7568854,34.9518889 18.2893185,34.3154603 18.5906178,33.475619 C18.8184841,32.8411111 18.9679299,32.1344921 19.0673312,31.472746 L19.7665796,38.0725714 L21.0818408,37.0968889 L20.1289299,28.1172222 C20.8326497,27.1768095 21.6553758,26.0155238 21.8712038,25.4510317 C22.220828,24.538381 21.7577006,19.8670476 21.5248471,17.7171587 L22.957051,13.7730476 L22.957051,13.6447143 L22.9572229,13.6447143 Z M5.38349045,13.528254 C5.46328662,12.3928095 6.62669427,9.67231746 7.73644586,7.37960317 L8.03224204,9.47588889 C7.91942675,10.2596825 7.40384713,13.3335714 6.02082803,15.2711429 L5.38349045,13.528254 L5.38349045,13.528254 Z M13.4877898,36.9973651 C12.7144204,36.9973651 11.6148153,36.6472857 11.3412038,35.7192698 C11.3692357,35.7201429 11.3967516,35.7225873 11.4252994,35.7225873 C11.5747452,35.7225873 11.7149045,35.708619 11.8502484,35.6890635 C12.2425223,36.2436032 12.8535478,36.4136667 13.4726561,36.4136667 C14.0927962,36.4136667 14.7050255,36.2451746 15.0979873,35.6897619 C15.2324713,35.7084444 15.3710828,35.7225873 15.5193248,35.7225873 C15.5483885,35.7225873 15.5764204,35.7201429 15.6054841,35.7192698 C15.3346242,36.6472857 14.2496369,36.9973651 13.4877898,36.9973651 L13.4877898,36.9973651 Z M12.595586,35.4720317 C12.7837261,35.387 12.9536369,35.2857302 13.1034268,35.1743333 C13.2403185,35.2151905 13.371707,35.2151905 13.4724841,35.2151905 C13.5727452,35.2151905 13.702758,35.2160635 13.8386178,35.1752063 C13.9887516,35.2857302 14.1590064,35.387 14.3471465,35.4720317 C14.1111975,35.6511746 13.8205605,35.7519206 13.473172,35.7519206 C13.1238917,35.7519206 12.831879,35.651873 12.595586,35.4720317 L12.595586,35.4720317 Z M20.5583503,24.9329841 C20.3542166,25.4653492 18.9450573,27.3674762 18.009,28.5484921 L17.8528471,28.7464921 L17.853535,28.9991429 C17.853535,29.0220159 17.8528471,31.3534921 17.2672739,32.9851587 C16.8438726,34.1644286 15.9035159,34.2918889 15.5193248,34.2918889 C14.5466369,34.2918889 14.1268471,33.3865714 14.1120573,33.3539206 L14.0565096,32.505873 L12.8740127,32.505873 L12.8207006,33.3490317 C12.8038471,33.3874444 12.3943758,34.289619 11.4265032,34.289619 C11.0414522,34.289619 10.1014395,34.1635556 9.67769427,32.9842857 C9.09401274,31.358381 9.09126115,29.0220159 9.09126115,28.9982698 L9.09212102,28.745619 L8.93596815,28.5484921 C8.00042675,27.3683492 6.59109554,25.4662222 6.39212102,24.9467778 C6.23304459,24.3849048 6.49564968,20.7514127 6.82996815,17.7066825 L6.84836943,17.5376667 L6.58456051,16.8167302 C7.49086624,15.8520476 8.12682803,14.5243651 8.56553503,13.2605873 L8.60818471,13.5682381 L10.0476115,15.9697302 L10.6099682,15.7245873 C10.6240701,15.7184762 12.0662484,15.0954921 13.4666369,15.0954921 C14.8580828,15.0954921 16.3239936,15.719 16.3377516,15.7251111 L16.8992484,15.9681587 L18.3369554,13.5677143 L18.3933631,13.1668254 C18.8274268,14.443 19.4627006,15.7944286 20.3733057,16.7805873 L20.0971146,17.5371429 L20.1155159,17.7059841 C20.4496624,20.7514127 20.7122675,24.3849048 20.5583503,24.9329841 L20.5583503,24.9329841 Z M20.9399618,15.2299365 C19.4456752,13.0969841 18.9768726,9.62953968 18.9362866,9.31263492 L19.2088662,7.37977778 C20.3184459,9.67231746 21.4825414,12.3929841 21.5623376,13.5284286 L20.9399618,15.2299365 L20.9399618,15.2299365 Z" id="Shape-Copy-32" fill="#333152"></path>
                <g id="Group-Copy-9" transform="translate(11.350318, 30.031746)">
                    <path d="M3.78051592,0.0174603175 L0.474821656,0.0174603175 C0.474821656,0.0174603175 0.0302675159,0.804222222 0.0302675159,1.05949206 C0.0302675159,1.81761905 2.06489809,3.02465079 2.06489809,3.02465079 C2.06489809,3.02465079 4.21406369,1.78165079 4.21406369,1.05949206 C4.21406369,0.715 3.78051592,0.0174603175 3.78051592,0.0174603175 L3.78051592,0.0174603175 Z" id="Shape" fill="#333152"></path>
                    <g id="Group" transform="translate(0.859873, 2.011732)">
                        <path d="M2.28347771,0.316775707 C2.09912102,-0.0151449275 1.86110828,-0.0757322291 1.75190446,0.180236025 C1.64304459,0.436378882 1.70529936,0.913045549 1.88965605,1.24426777 C2.07401274,1.57636301 2.31219745,1.63695031 2.42088535,1.38080745 C2.53008917,1.1248392 2.46817834,0.64799793 2.28347771,0.316775707 L2.28347771,0.316775707 Z" id="Shape" fill="#C49A7E"></path>
                        <path d="M0.24110828,0.316775707 C0.0564076433,0.64799793 -0.00498726115,1.1248392 0.103700637,1.38080745 C0.21256051,1.63695031 0.450229299,1.57636301 0.63544586,1.24426777 C0.819802548,0.913220152 0.881541401,0.436378882 0.77233758,0.180236025 C0.663649682,-0.0757322291 0.425808917,-0.0151449275 0.24110828,0.316775707 L0.24110828,0.316775707 Z" id="Shape" fill="#D8B7A0"></path>
                    </g>
                </g>
            </g>
            <g id="wordmark" transform="translate(35.000000, 7.000000)" fill="#FFFFFF">
                <path d="M5.26130841,24.9855072 C3.1753271,24.9855072 1.48336449,24.626087 0.0347663551,23.9304348 L0.475140187,20.5913043 C2.00485981,21.3449275 3.73158879,21.7043478 5.18018692,21.7043478 C6.23476636,21.7043478 6.93009346,21.3449275 6.93009346,20.7072464 C6.93009346,18.8753623 0.336074766,19.315942 0.336074766,14.5275362 C0.336074766,11.4666667 3.14056075,9.85507246 6.65196262,9.85507246 C8.40186916,9.85507246 10.2097196,10.3304348 11.3801869,10.7478261 L10.9050467,14.0289855 C9.67663551,13.5536232 8.00785047,13.1130435 6.61719626,13.1130435 C5.75962617,13.1130435 5.06429907,13.4144928 5.06429907,13.9710145 C5.06429907,15.7797101 11.7973832,15.4202899 11.7973832,20.0927536 C11.7973832,23.2 9.03925234,24.9855072 5.26130841,24.9855072 L5.26130841,24.9855072 Z" id="Shape"></path>
                <path d="M23.4904673,24.6724638 L23.4904673,16.4057971 C23.4904673,14.515942 22.6560748,13.6231884 21.0684112,13.6231884 C20.2919626,13.6231884 19.4807477,13.8434783 18.924486,14.1797101 L18.924486,24.6724638 L14.0340187,24.6724638 L14.0340187,10.342029 L18.8201869,9.94782609 L18.7042991,12.2898551 L18.8665421,12.2898551 C19.8979439,10.8985507 21.6478505,9.84347826 23.7338318,9.84347826 C26.2370093,9.84347826 28.4041121,11.3971014 28.4041121,15.0724638 L28.4041121,24.6724638 L23.4904673,24.6724638 L23.4904673,24.6724638 Z" id="Shape"></path>
                <path d="M55.8115888,24.6724638 L51.8945794,17.8550725 L51.5005607,17.8550725 L51.5005607,24.6724638 L46.6100935,24.6724638 L46.6100935,7.69855072 L51.5005607,0.0463768116 L51.5005607,15.884058 C52.4740187,14.6898551 55.7536449,10.1565217 55.7536449,10.1565217 L61.7914019,10.1565217 L56.0665421,16.2202899 L61.9884112,24.684058 L55.8115888,24.684058 L55.8115888,24.6724638 Z" id="Shape"></path>
                <path d="M40.271028,10.2028986 L38.2661682,16.742029 C37.8721495,17.9710145 37.4897196,20.2318841 37.4897196,20.2318841 C37.4897196,20.2318841 37.1884112,17.8898551 36.771215,16.6608696 L34.6272897,10.2028986 L29.1457944,10.2028986 L35.1024299,24.6724638 C34.291215,26.5971014 33.0396262,28.2202899 31.3708411,28.2202899 C31.0695327,28.2202899 30.7682243,28.2086957 30.4785047,28.173913 L28.5315888,31.1884058 L28.5315888,31.1884058 C29.1457944,31.5362319 30.3162617,31.8956522 31.7069159,31.8956522 C35.3226168,31.8956522 37.7446729,28.9623188 39.4366355,24.626087 L45.1151402,10.2028986 L40.271028,10.2028986 L40.271028,10.2028986 Z" id="Shape"></path>
            </g>
        </g>
    </g>
</svg>