<?xml version="1.0" encoding="utf-8"?>
<!-- Generator: Adobe Illustrator 19.0.0, SVG Export Plug-In . SVG Version: 6.00 Build 0)  -->
<svg version="1.1" id="Layer_1" xmlns="http://www.w3.org/2000/svg" xmlns:xlink="http://www.w3.org/1999/xlink" x="0px" y="0px"
	 viewBox="-574.5 353 320 320" style="enable-background:new -574.5 353 320 320;" xml:space="preserve">
<style type="text/css">
	.st0{fill:#FFFFFF;}
	.st1{fill:#3B3B63;}
	.st2{fill:#DBDBDB;}
	.st3{fill:#C6C6C6;}
	.st4{fill:#53537A;}
	.st5{fill:#BC9375;}
	.st6{fill:#083251;}
	.st7{fill:#C49A7E;}
	.st8{fill:#D8B7A0;}
	.st9{fill:#333152;}
</style>
<title>Group 4</title>
<desc>Created with Sketch.</desc>
<g id="Page-1">
	<g id="Group-4">
		<g id="symbol">
			<path id="Shape-Copy-45" class="st0" d="M-371.3,372.9l1.8,3.5c2.7,5.2,26.5,50.8,26.5,67.3h0v1l-10.8,29.7
				c1.8,16.2,5.2,51.4,2.6,58.3c-1.6,4.3-7.8,13-13.1,20.1l7.2,67.7l-9.9,7.4l-4.5-42.4l-1.3,1l-0.3-3.3c-0.7,3.4-1.6,6.8-2.7,10
				c-2.3,6.3-6.3,11.1-11.4,14c-0.3,15.2-14.1,23.4-27.1,23.4c-13.1,0-27-8.2-27.3-23.4c-5.1-2.8-9.2-7.6-11.4-14
				c-1.1-3.1-2-6.4-2.6-9.7l-0.3,3.3l-1.3-0.9l-4.5,42.4l-9.9-7.1l7.2-68.2c-5.3-7.1-11.7-16-13.3-20.3c-2.6-6.9,0.7-42.1,2.5-58.3
				l-11-29.7v-1c0-16.5,24-62.2,26.7-67.3l0.6-1.1c2.4-4.9,4.3-8.4,4.9-9.6l6.8-12.7c0,0,6.2,44.2,6.2,44.2l3.4,23.9l3.1,26.3
				c3.8-1.2,9.2-2.7,15-3.3c1.6-3.9,3.2-6.5,5.1-6.5c3.5,0,7.1,3.5,10.3,7.2c3.6,0.7,6.8,1.6,9.5,2.4l3.5-26.2l9.6-68l6.7,12.7
				C-374.4,366.7-373.1,369.3-371.3,372.9z"/>
			<path id="Shape-Copy-44" class="st0" d="M-316.6,602.1l-97.9,70.9l-97.9-70.9V436.7c0,0,36.2-13.8,98-13.8s97.8,13.8,97.8,13.8
				V602.1L-316.6,602.1L-316.6,602.1z"/>
			<polygon id="Shape-Copy-42" class="st1" points="-372.4,557.5 -414.6,557.5 -414.6,485.2 -457.4,555.3 -464.1,627.4 -415.2,663 
				-414.6,663.5 -364.6,627.1 			"/>
			<g id="Shape-_x2B_-Shape-Copy" transform="translate(0.859873, 10.650794)">
				<path id="Shape" class="st2" d="M-416.2,652.1l-90.9-65.9V432.7c0,0,33.6-12.8,91-12.8s90.7,12.8,90.7,12.8v153.6L-416.2,652.1z
					"/>
				<path id="Shape_1_" class="st3" d="M-414.8,419.8c0,0-0.1,0-0.1,0v232.3h0l90.9-65.9V432.7
					C-324.1,432.7-357.5,419.8-414.8,419.8L-414.8,419.8L-414.8,419.8z"/>
			</g>
			<polygon id="Shape-Copy-41" class="st1" points="-364.9,627 -372.6,557.5 -414.8,557.5 -414.8,663.4 			"/>
			<polygon id="Shape-Copy-40" class="st4" points="-464.1,627.4 -414.6,663.5 -414.6,485.2 -457.4,555.3 			"/>
			<path id="Shape-Copy-39" class="st5" d="M-393.3,606.8c0,11.9-11,17.8-21,17.8c-10,0-21.2-5.9-21.2-17.8"/>
			<path id="Shape-Copy-38" class="st6" d="M-399.4,600.1c0,14-7.4,17.7-15,17.7c-7.5,0-15-3.7-15-17.7"/>
			<path id="Shape-Copy-37" class="st0" d="M-414.4,613c-8.1,0-12-6-12-18.4h3.8c0,14.5,5.5,14.5,8.1,14.5c2.6,0,8.1,0,8.1-14.5h3.8
				C-402.4,607-406.3,613-414.4,613L-414.4,613z"/>
			<g id="Group-Copy-11" transform="translate(4.643312, 4.979986)">
				<path id="Shape_2_" class="st7" d="M-355,447.2c0-15.1-25.1-62.5-25.1-62.5l-8.5,60.2l-7.6,12.7l-22.8,0.9l-0.1,0.2v-0.2
					l-22.8-0.9l-7.6-12.7l-8.5-60.2c0,0-25.1,47.4-25.1,62.5l10.6,29c0,0-5.3,48.7-2.9,55c2.4,6.4,19.3,27.7,19.3,27.7
					s-0.1,17.9,4.6,30.8c3.3,9.2,10.6,12.9,17.5,12.9c10.7,0,14.8-9.9,14.8-9.9s4.3,9.9,14.9,9.9c7,0,14.2-3.7,17.5-12.9
					c4.6-12.9,4.6-30.8,4.6-30.8s16.9-21.3,19.3-27.7c2.4-6.4-2.9-55-2.9-55L-355,447.2L-355,447.2z"/>
				<path id="Shape_3_" class="st8" d="M-419,458.6L-419,458.6L-419,458.6l-22.9-1l-7.6-12.7l-8.5-60.2c0,0-25.1,47.4-25.1,62.5
					l10.6,29c0,0-5.3,48.7-2.9,55c2.4,6.4,19.3,27.7,19.3,27.7s0,17.9,4.6,30.8c3.3,9.2,10.6,12.9,17.5,12.9
					c10.7,0,14.8-9.9,14.8-9.9s0,0,0,0.1L-419,458.6L-419,458.6L-419,458.6z"/>
			</g>
			<path id="Shape-Copy-36" class="st1" d="M-360.7,484c-1.9-4.1,0.8-13.9,0.8-13.9c-15.8-16.5-19.8-50.9-19.8-50.9
				c-3,10.8-9.4,42.8-9.4,42.8s-11.8-4.5-25.3-4.5l0,0h0h-0.1l0,0c-0.7,0-1.5,0-2.2,0v134.9l1,1.5v-0.7h0.6v0.7l0-0.7h1.2v0.7v-0.7
				h0.6v0.7l10.9-16.2l2.4-45.6l13.6,15.8l17.6,5.2c0,0,6.6-4.8,6.6-4.7c2.8-4,3.7-7.3,4.4-9.1C-355.3,532.8-360.7,484-360.7,484
				L-360.7,484z"/>
			<path id="Shape-Copy-35" class="st4" d="M-414.3,457.5C-414.3,457.5-414.3,457.5-414.3,457.5L-414.3,457.5
				c-13.5,0-25.3,4.5-25.3,4.5s-6.4-32-9.4-42.8c0,0-4,34.4-19.8,50.9c0,0,2.8,9.8,0.8,13.9c0,0-5.5,48.8-3,55.2
				c0.7,1.8,1.6,5.1,4.4,9.1c0,0,6.6,4.7,6.6,4.7l17.5-5.2l13.6-15.8l2.4,45.6l10.9,16.2v-0.7h0.6v0.7v-0.7h0.6L-414.3,457.5
				L-414.3,457.5L-414.3,457.5z"/>
			<g id="Group-Copy-10" transform="translate(8.171618, 22.174603)">
				<g id="Group" transform="translate(6.790165, 0.000000)">
					<path id="Shape_4_" class="st9" d="M-397.5,492.3L-397.5,492.3h-15.4l0,0h-5.1v0.2c0,7.3,6.2,13.2,13.5,13.2
						c7.3,0,13.5-5.9,13.5-13.2v-0.2H-397.5L-397.5,492.3z"/>
					<path id="Shape_5_" class="st0" d="M-412.9,492.3v0.2c0,4.3,3.4,7.8,7.7,7.8c4.3,0,7.7-3.5,7.7-7.8v-0.2H-412.9L-412.9,492.3z"
						/>
					<path id="Shape_6_" class="st9" d="M-402.8,492.3h-3.6c0,0-0.1,0-0.1,0c0.4,0.1,0.7,1.1,0.6,1.8c-0.1,1-1,1.8-2,1.8
						c0.3,1.4,1.4,2.5,2.9,2.7c1.9,0.3,3.6-1,3.9-2.9C-401.1,494.3-401.7,492.3-402.8,492.3L-402.8,492.3z"/>
				</g>
				<g id="Group_1_">
					<path id="Shape_7_" class="st9" d="M-440.2,492.3L-440.2,492.3h-15.4l0,0h-5.1v0.2c0,7.3,6.2,13.2,13.5,13.2
						c7.3,0,13.5-5.9,13.5-13.2v-0.2H-440.2L-440.2,492.3z"/>
					<path id="Shape_8_" class="st0" d="M-455.6,492.3v0.2c0,4.3,3.4,7.8,7.7,7.8c4.3,0,7.7-3.5,7.7-7.8v-0.2H-455.6L-455.6,492.3z"
						/>
					<path id="Shape_9_" class="st9" d="M-445.5,492.3h-3.6c0,0-0.1,0-0.1,0c0.4,0.1,0.7,1.1,0.6,1.8c-0.1,1-1,1.8-2,1.8
						c0.3,1.4,1.4,2.5,2.9,2.7c1.9,0.3,3.6-1,3.9-2.9C-443.8,494.3-444.4,492.3-445.5,492.3L-445.5,492.3z"/>
				</g>
			</g>
			<path id="Shape-Copy-34" class="st7" d="M-384.1,508.3c0.9-1,8.2-9.4-1.6-9.4c-8.8,0-15.2,7.2-16.9,9.4H-384.1L-384.1,508.3z"/>
			<path id="Shape-Copy-33" class="st8" d="M-426.3,508.3c-1.7-2.1-8-9.4-16.9-9.4c-9.8,0-2.5,8.4-1.6,9.4H-426.3L-426.3,508.3z"/>
			<rect id="Rectangle-path-Copy-3" x="-457.3" y="510.9" class="st4" width="37.4" height="3.6"/>
			<path id="Shape-Copy-32" class="st9" d="M-345.4,452.3c0-15.9-23-60-25.6-65l-7.3-14l-10.5,74.8l-4.9,8.1
				c-4.7-1.6-12.7-3.8-20.7-3.8c-8,0-16,2.2-20.6,3.8l-4.9-8.1l-3.7-26.2c0,0,0-0.1,0-0.1l0,0l-6.8-48.5l-7.5,14
				c-2.6,5-25.8,49.1-25.8,65v0.9l10.6,28.7c-1.7,15.6-4.9,49.6-2.4,56.3c1.6,4.2,7.7,12.7,12.8,19.6l-7,65.8l9.6,6.9l5.1-47.8
				c0.7,4.7,1.8,9.6,3.4,14c2.2,6.1,6.1,10.7,11,13.5c0.3,14.6,13.7,22.5,26.3,22.5c12.5,0,25.8-7.9,26.1-22.6
				c5-2.7,8.8-7.4,11-13.5c1.7-4.6,2.7-9.8,3.5-14.6l5.1,48l9.6-7.1l-6.9-65.3c5.1-6.8,11.1-15.3,12.7-19.4
				c2.5-6.6-0.8-40.6-2.5-56.3l10.4-28.7L-345.4,452.3L-345.4,452.3z M-473.2,451.4c0.6-8.3,9-28.1,17.1-44.7l2.2,15.3
				c-0.8,5.7-4.6,28.1-14.6,42.2L-473.2,451.4L-473.2,451.4z M-414.3,622.2c-5.6,0-13.6-2.5-15.6-9.3c0.2,0,0.4,0,0.6,0
				c1.1,0,2.1-0.1,3.1-0.2c2.9,4,7.3,5.3,11.8,5.3c4.5,0,9-1.2,11.8-5.3c1,0.1,2,0.2,3.1,0.2c0.2,0,0.4,0,0.6,0
				C-400.8,619.7-408.7,622.2-414.3,622.2L-414.3,622.2z M-420.8,611.1c1.4-0.6,2.6-1.4,3.7-2.2c1,0.3,2,0.3,2.7,0.3
				c0.7,0,1.7,0,2.7-0.3c1.1,0.8,2.3,1.5,3.7,2.2c-1.7,1.3-3.8,2-6.4,2C-416.9,613.1-419,612.4-420.8,611.1L-420.8,611.1z
				 M-362.8,534.4c-1.5,3.9-11.7,17.7-18.5,26.3l-1.1,1.4l0,1.8c0,0.2,0,17.1-4.3,29c-3.1,8.6-9.9,9.5-12.7,9.5
				c-7.1,0-10.1-6.6-10.2-6.8l-0.4-6.2h-8.6l-0.4,6.1c-0.1,0.3-3.1,6.8-10.1,6.8c-2.8,0-9.6-0.9-12.7-9.5c-4.2-11.8-4.3-28.8-4.3-29
				l0-1.8l-1.1-1.4c-6.8-8.6-17.1-22.4-18.5-26.2c-1.2-4.1,0.8-30.5,3.2-52.7l0.1-1.2l-1.9-5.2c6.6-7,11.2-16.7,14.4-25.9l0.3,2.2
				l10.5,17.5l4.1-1.8c0.1,0,10.6-4.6,20.8-4.6c10.1,0,20.8,4.5,20.9,4.6l4.1,1.8l10.5-17.5l0.4-2.9c3.2,9.3,7.8,19.1,14.4,26.3
				l-2,5.5l0.1,1.2C-363.6,504-361.7,530.4-362.8,534.4L-362.8,534.4z M-360.1,463.8c-10.9-15.5-14.3-40.7-14.6-43.1l2-14.1
				c8.1,16.7,16.5,36.5,17.1,44.7L-360.1,463.8L-360.1,463.8z"/>
			<g id="Group-Copy-9" transform="translate(11.350318, 30.031746)">
				<path id="Shape_10_" class="st9" d="M-413.7,541.6h-24.1c0,0-3.2,5.7-3.2,7.6c0,5.5,14.8,14.3,14.8,14.3s15.6-9,15.6-14.3
					C-410.5,546.7-413.7,541.6-413.7,541.6L-413.7,541.6z"/>
				<g id="Group_2_" transform="translate(0.859873, 2.011732)">
					<path id="Shape_11_" class="st7" d="M-419.2,556.4c-1.3-2.4-3.1-2.9-3.9-1c-0.8,1.9-0.3,5.3,1,7.7c1.3,2.4,3.1,2.9,3.9,1
						C-417.4,562.3-417.8,558.8-419.2,556.4L-419.2,556.4z"/>
					<path id="Shape_12_" class="st8" d="M-434,556.4c-1.3,2.4-1.8,5.9-1,7.7c0.8,1.9,2.5,1.4,3.9-1c1.3-2.4,1.8-5.9,1-7.7
						C-431,553.6-432.7,554-434,556.4L-434,556.4z"/>
				</g>
			</g>
		</g>
	</g>
</g>
</svg>
